<svg id="visual" viewBox="0 0 1920 200" width="1920" height="200" xmlns="http://www.w3.org/2000/svg" xmlns:xlink="http://www.w3.org/1999/xlink" version="1.1"><path d="M0 59L87 10L175 86L262 12L349 22L436 2L524 26L611 79L698 87L785 29L873 57L960 28L1047 86L1135 39L1222 69L1309 52L1396 28L1484 62L1571 41L1658 27L1745 18L1833 57L1920 86L1920 201L1833 201L1745 201L1658 201L1571 201L1484 201L1396 201L1309 201L1222 201L1135 201L1047 201L960 201L873 201L785 201L698 201L611 201L524 201L436 201L349 201L262 201L175 201L87 201L0 201Z" fill="#18181b"></path><path d="M0 21L87 30L175 67L262 30L349 92L436 40L524 78L611 67L698 37L785 83L873 75L960 86L1047 88L1135 56L1222 85L1309 72L1396 54L1484 95L1571 68L1658 46L1745 26L1833 95L1920 88L1920 201L1833 201L1745 201L1658 201L1571 201L1484 201L1396 201L1309 201L1222 201L1135 201L1047 201L960 201L873 201L785 201L698 201L611 201L524 201L436 201L349 201L262 201L175 201L87 201L0 201Z" fill="#1d1d20"></path><path d="M0 97L87 103L175 64L262 72L349 47L436 68L524 101L611 102L698 100L785 71L873 55L960 56L1047 48L1135 85L1222 48L1309 42L1396 52L1484 107L1571 60L1658 50L1745 104L1833 47L1920 88L1920 201L1833 201L1745 201L1658 201L1571 201L1484 201L1396 201L1309 201L1222 201L1135 201L1047 201L960 201L873 201L785 201L698 201L611 201L524 201L436 201L349 201L262 201L175 201L87 201L0 201Z" fill="#212125"></path><path d="M0 100L87 126L175 120L262 97L349 111L436 100L524 61L611 92L698 97L785 93L873 117L960 105L1047 87L1135 81L1222 65L1309 80L1396 61L1484 110L1571 123L1658 97L1745 63L1833 116L1920 110L1920 201L1833 201L1745 201L1658 201L1571 201L1484 201L1396 201L1309 201L1222 201L1135 201L1047 201L960 201L873 201L785 201L698 201L611 201L524 201L436 201L349 201L262 201L175 201L87 201L0 201Z" fill="#26262b"></path><path d="M0 131L87 84L175 114L262 96L349 102L436 137L524 141L611 133L698 113L785 80L873 128L960 123L1047 87L1135 103L1222 96L1309 80L1396 126L1484 105L1571 96L1658 141L1745 127L1833 125L1920 86L1920 201L1833 201L1745 201L1658 201L1571 201L1484 201L1396 201L1309 201L1222 201L1135 201L1047 201L960 201L873 201L785 201L698 201L611 201L524 201L436 201L349 201L262 201L175 201L87 201L0 201Z" fill="#2b2b30"></path><path d="M0 152L87 108L175 156L262 143L349 130L436 138L524 130L611 151L698 134L785 107L873 121L960 144L1047 124L1135 156L1222 125L1309 118L1396 110L1484 131L1571 106L1658 141L1745 128L1833 107L1920 130L1920 201L1833 201L1745 201L1658 201L1571 201L1484 201L1396 201L1309 201L1222 201L1135 201L1047 201L960 201L873 201L785 201L698 201L611 201L524 201L436 201L349 201L262 201L175 201L87 201L0 201Z" fill="#303035"></path><path d="M0 156L87 145L175 146L262 150L349 145L436 153L524 158L611 135L698 166L785 138L873 143L960 146L1047 155L1135 171L1222 121L1309 165L1396 142L1484 133L1571 128L1658 141L1745 138L1833 159L1920 169L1920 201L1833 201L1745 201L1658 201L1571 201L1484 201L1396 201L1309 201L1222 201L1135 201L1047 201L960 201L873 201L785 201L698 201L611 201L524 201L436 201L349 201L262 201L175 201L87 201L0 201Z" fill="#35353b"></path><path d="M0 179L87 179L175 157L262 175L349 141L436 165L524 142L611 174L698 158L785 176L873 170L960 142L1047 152L1135 164L1222 158L1309 154L1396 159L1484 175L1571 174L1658 164L1745 147L1833 166L1920 183L1920 201L1833 201L1745 201L1658 201L1571 201L1484 201L1396 201L1309 201L1222 201L1135 201L1047 201L960 201L873 201L785 201L698 201L611 201L524 201L436 201L349 201L262 201L175 201L87 201L0 201Z" fill="#3a3a40"></path><path d="M0 173L87 191L175 198L262 171L349 190L436 177L524 180L611 169L698 165L785 192L873 184L960 162L1047 174L1135 186L1222 179L1309 177L1396 179L1484 162L1571 185L1658 177L1745 193L1833 163L1920 194L1920 201L1833 201L1745 201L1658 201L1571 201L1484 201L1396 201L1309 201L1222 201L1135 201L1047 201L960 201L873 201L785 201L698 201L611 201L524 201L436 201L349 201L262 201L175 201L87 201L0 201Z" fill="#3f3f46"></path></svg>