<svg id="visual" viewBox="0 0 1280 540" width="1280" height="540" xmlns="http://www.w3.org/2000/svg" xmlns:xlink="http://www.w3.org/1999/xlink" version="1.1"><path d="M0 438L116 386L233 434L349 361L465 411L582 422L698 379L815 426L931 428L1047 385L1164 395L1280 439L1280 541L1164 541L1047 541L931 541L815 541L698 541L582 541L465 541L349 541L233 541L116 541L0 541Z" fill="#18181b"></path><path d="M0 390L116 439L233 377L349 377L465 417L582 427L698 401L815 383L931 447L1047 428L1164 415L1280 429L1280 541L1164 541L1047 541L931 541L815 541L698 541L582 541L465 541L349 541L233 541L116 541L0 541Z" fill="#1d1d21"></path><path d="M0 462L116 436L233 441L349 405L465 467L582 405L698 433L815 431L931 413L1047 462L1164 458L1280 428L1280 541L1164 541L1047 541L931 541L815 541L698 541L582 541L465 541L349 541L233 541L116 541L0 541Z" fill="#232327"></path><path d="M0 456L116 463L233 435L349 454L465 421L582 479L698 440L815 464L931 420L1047 467L1164 440L1280 469L1280 541L1164 541L1047 541L931 541L815 541L698 541L582 541L465 541L349 541L233 541L116 541L0 541Z" fill="#28282d"></path><path d="M0 473L116 456L233 458L349 453L465 489L582 451L698 456L815 438L931 450L1047 455L1164 438L1280 442L1280 541L1164 541L1047 541L931 541L815 541L698 541L582 541L465 541L349 541L233 541L116 541L0 541Z" fill="#2e2e33"></path><path d="M0 466L116 494L233 474L349 497L465 479L582 488L698 489L815 473L931 491L1047 477L1164 500L1280 484L1280 541L1164 541L1047 541L931 541L815 541L698 541L582 541L465 541L349 541L233 541L116 541L0 541Z" fill="#333339"></path><path d="M0 503L116 488L233 512L349 481L465 497L582 504L698 492L815 485L931 490L1047 498L1164 482L1280 495L1280 541L1164 541L1047 541L931 541L815 541L698 541L582 541L465 541L349 541L233 541L116 541L0 541Z" fill="#393940"></path><path d="M0 510L116 524L233 511L349 502L465 513L582 515L698 507L815 526L931 515L1047 514L1164 519L1280 508L1280 541L1164 541L1047 541L931 541L815 541L698 541L582 541L465 541L349 541L233 541L116 541L0 541Z" fill="#3f3f46"></path></svg>