<svg id="visual" viewBox="0 0 1920 200" width="1920" height="200" xmlns="http://www.w3.org/2000/svg" xmlns:xlink="http://www.w3.org/1999/xlink" version="1.1"><path d="M0 80L120 75L240 83L360 73L480 15L600 62L720 9L840 82L960 50L1080 72L1200 1L1320 54L1440 39L1560 24L1680 44L1800 1L1920 21L1920 201L1800 201L1680 201L1560 201L1440 201L1320 201L1200 201L1080 201L960 201L840 201L720 201L600 201L480 201L360 201L240 201L120 201L0 201Z" fill="#18181b"></path><path d="M0 85L120 66L240 23L360 19L480 65L600 56L720 37L840 40L960 97L1080 59L1200 21L1320 99L1440 67L1560 93L1680 32L1800 28L1920 46L1920 201L1800 201L1680 201L1560 201L1440 201L1320 201L1200 201L1080 201L960 201L840 201L720 201L600 201L480 201L360 201L240 201L120 201L0 201Z" fill="#1d1d20"></path><path d="M0 92L120 49L240 51L360 75L480 74L600 86L720 51L840 58L960 107L1080 70L1200 64L1320 55L1440 61L1560 93L1680 102L1800 71L1920 45L1920 201L1800 201L1680 201L1560 201L1440 201L1320 201L1200 201L1080 201L960 201L840 201L720 201L600 201L480 201L360 201L240 201L120 201L0 201Z" fill="#212125"></path><path d="M0 59L120 119L240 71L360 107L480 128L600 115L720 97L840 60L960 82L1080 97L1200 113L1320 108L1440 118L1560 120L1680 123L1800 108L1920 122L1920 201L1800 201L1680 201L1560 201L1440 201L1320 201L1200 201L1080 201L960 201L840 201L720 201L600 201L480 201L360 201L240 201L120 201L0 201Z" fill="#26262b"></path><path d="M0 103L120 141L240 124L360 123L480 136L600 128L720 127L840 85L960 81L1080 93L1200 129L1320 86L1440 113L1560 90L1680 107L1800 110L1920 123L1920 201L1800 201L1680 201L1560 201L1440 201L1320 201L1200 201L1080 201L960 201L840 201L720 201L600 201L480 201L360 201L240 201L120 201L0 201Z" fill="#2b2b30"></path><path d="M0 143L120 140L240 123L360 146L480 147L600 128L720 133L840 109L960 155L1080 153L1200 124L1320 112L1440 133L1560 126L1680 122L1800 147L1920 153L1920 201L1800 201L1680 201L1560 201L1440 201L1320 201L1200 201L1080 201L960 201L840 201L720 201L600 201L480 201L360 201L240 201L120 201L0 201Z" fill="#303035"></path><path d="M0 127L120 134L240 142L360 130L480 138L600 158L720 121L840 156L960 151L1080 129L1200 122L1320 158L1440 157L1560 126L1680 168L1800 122L1920 153L1920 201L1800 201L1680 201L1560 201L1440 201L1320 201L1200 201L1080 201L960 201L840 201L720 201L600 201L480 201L360 201L240 201L120 201L0 201Z" fill="#35353b"></path><path d="M0 160L120 165L240 165L360 152L480 172L600 173L720 146L840 178L960 150L1080 143L1200 148L1320 172L1440 183L1560 157L1680 142L1800 158L1920 143L1920 201L1800 201L1680 201L1560 201L1440 201L1320 201L1200 201L1080 201L960 201L840 201L720 201L600 201L480 201L360 201L240 201L120 201L0 201Z" fill="#3a3a40"></path><path d="M0 187L120 163L240 190L360 172L480 164L600 192L720 173L840 171L960 166L1080 196L1200 175L1320 170L1440 176L1560 196L1680 182L1800 184L1920 175L1920 201L1800 201L1680 201L1560 201L1440 201L1320 201L1200 201L1080 201L960 201L840 201L720 201L600 201L480 201L360 201L240 201L120 201L0 201Z" fill="#3f3f46"></path></svg>